<?xml version="1.0" encoding="utf-8" standalone="no"?>
<!DOCTYPE svg PUBLIC "-//W3C//DTD SVG 1.1//EN"
  "http://www.w3.org/Graphics/SVG/1.1/DTD/svg11.dtd">
<svg xmlns:xlink="http://www.w3.org/1999/xlink" width="864pt" height="288pt" viewBox="0 0 864 288" xmlns="http://www.w3.org/2000/svg" version="1.1">
 <metadata>
  <rdf:RDF xmlns:dc="http://purl.org/dc/elements/1.1/" xmlns:cc="http://creativecommons.org/ns#" xmlns:rdf="http://www.w3.org/1999/02/22-rdf-syntax-ns#">
   <cc:Work>
    <dc:type rdf:resource="http://purl.org/dc/dcmitype/StillImage"/>
    <dc:date>2026-10-05T07:17:35.273627</dc:date>
    <dc:format>image/svg+xml</dc:format>
    <dc:creator>
     <cc:Agent>
      <dc:title>Matplotlib v3.11.2, https://matplotlib.org/</dc:title>
     </cc:Agent>
    </dc:creator>
   </cc:Work>
  </rdf:RDF>
 </metadata>
 <defs>
  <style type="text/css">*{stroke-linejoin: round; stroke-linecap: butt}</style>
 </defs>
 <g id="figure_1">
  <g id="patch_1">
   <path d="M 0 288 
L 864 288 
L 864 0 
L 0 0 
z
" style="fill: #ffffff"/>
  </g>
  <g id="axes_1">
   <g id="patch_2">
    <path d="M 39.904146 253.998979 
L 286.873458 253.998979 
L 286.873458 36.119782 
L 39.904146 36.119782 
z
" style="fill: #ffffff"/>
   </g>
   <g id="patch_3">
    <path d="M 51.130024 253.998979 
L 65.048902 253.998979 
L 65.048902 181.37258 
L 51.130024 181.37258 
z
" clip-path="url(#pa0702aac7e)" style="fill: #277da8"/>
   </g>
   <g id="patch_4">
    <path d="M 111.646886 253.998979 
L 125.565764 253.998979 
L 125.565764 199.52918 
L 111.646886 199.52918 
z
" clip-path="url(#pa0702aac7e)" style="fill: #277da8"/>
   </g>
   <g id="patch_5">
    <path d="M 172.163747 253.998979 
L 186.082625 253.998979 
L 186.082625 208.60748 
L 172.163747 208.60748 
z
" clip-path="url(#pa0702aac7e)" style="fill: #277da8"/>
   </g>
   <g id="patch_6">
    <path d="M 232.680608 253.998979 
L 246.599487 253.998979 
L 246.599487 208.60748 
L 232.680608 208.60748 
z
" clip-path="url(#pa0702aac7e)" style="fill: #277da8"/>
   </g>
   <g id="patch_7">
    <path d="M 65.654071 253.998979 
L 79.572949 253.998979 
L 79.572949 135.981081 
L 65.654071 135.981081 
z
" clip-path="url(#pa0702aac7e)" style="fill: #f8961e"/>
   </g>
   <g id="patch_8">
    <path d="M 126.170932 253.998979 
L 140.08981 253.998979 
L 140.08981 226.764079 
L 126.170932 226.764079 
z
" clip-path="url(#pa0702aac7e)" style="fill: #f8961e"/>
   </g>
   <g id="patch_9">
    <path d="M 186.687794 253.998979 
L 200.606672 253.998979 
L 200.606672 226.764079 
L 186.687794 226.764079 
z
" clip-path="url(#pa0702aac7e)" style="fill: #f8961e"/>
   </g>
   <g id="patch_10">
    <path d="M 247.204655 253.998979 
L 261.123533 253.998979 
L 261.123533 208.60748 
L 247.204655 208.60748 
z
" clip-path="url(#pa0702aac7e)" style="fill: #f8961e"/>
   </g>
   <g id="patch_11">
    <path d="M 80.178118 253.998979 
L 94.096996 253.998979 
L 94.096996 108.746181 
L 80.178118 108.746181 
z
" clip-path="url(#pa0702aac7e)" style="fill: #a84469"/>
   </g>
   <g id="patch_12">
    <path d="M 140.694979 253.998979 
L 154.613857 253.998979 
L 154.613857 235.842379 
L 140.694979 235.842379 
z
" clip-path="url(#pa0702aac7e)" style="fill: #a84469"/>
   </g>
   <g id="patch_13">
    <path d="M 201.211841 253.998979 
L 215.130719 253.998979 
L 215.130719 226.764079 
L 201.211841 226.764079 
z
" clip-path="url(#pa0702aac7e)" style="fill: #a84469"/>
   </g>
   <g id="patch_14">
    <path d="M 261.728702 253.998979 
L 275.64758 253.998979 
L 275.64758 226.764079 
L 261.728702 226.764079 
z
" clip-path="url(#pa0702aac7e)" style="fill: #a84469"/>
   </g>
   <g id="matplotlib.axis_1">
    <g id="xtick_1">
     <g id="line2d_1">
      <defs>
       <path id="m1ab418dbf7" d="M 0 0 
L 0 3.5 
" style="stroke: #000000; stroke-width: 0.8"/>
      </defs>
      <g>
       <use xlink:href="#m1ab418dbf7" x="72.61351" y="253.998979" style="stroke: #000000; stroke-width: 0.8"/>
      </g>
     </g>
     <g id="text_1">
      <!-- 1 -->
      <g transform="translate(69.43226 268.596635) scale(0.1 -0.1)">
       <defs>
        <path id="DejaVuSans-14" d="M 794 531 
L 1825 531 
L 1825 4091 
L 703 3866 
L 703 4441 
L 1819 4666 
L 2450 4666 
L 2450 531 
L 3481 531 
L 3481 0 
L 794 0 
L 794 531 
z
" transform="scale(0.015625)"/>
       </defs>
       <use xlink:href="#DejaVuSans-14"/>
      </g>
     </g>
    </g>
    <g id="xtick_2">
     <g id="line2d_2">
      <g>
       <use xlink:href="#m1ab418dbf7" x="133.130371" y="253.998979" style="stroke: #000000; stroke-width: 0.8"/>
      </g>
     </g>
     <g id="text_2">
      <!-- 2 -->
      <g transform="translate(129.949121 268.596635) scale(0.1 -0.1)">
       <defs>
        <path id="DejaVuSans-15" d="M 1228 531 
L 3431 531 
L 3431 0 
L 469 0 
L 469 531 
Q 828 903 1448 1529 
Q 2069 2156 2228 2338 
Q 2531 2678 2651 2914 
Q 2772 3150 2772 3378 
Q 2772 3750 2511 3984 
Q 2250 4219 1831 4219 
Q 1534 4219 1204 4116 
Q 875 4013 500 3803 
L 500 4441 
Q 881 4594 1212 4672 
Q 1544 4750 1819 4750 
Q 2544 4750 2975 4387 
Q 3406 4025 3406 3419 
Q 3406 3131 3298 2873 
Q 3191 2616 2906 2266 
Q 2828 2175 2409 1742 
Q 1991 1309 1228 531 
z
" transform="scale(0.015625)"/>
       </defs>
       <use xlink:href="#DejaVuSans-15"/>
      </g>
     </g>
    </g>
    <g id="xtick_3">
     <g id="line2d_3">
      <g>
       <use xlink:href="#m1ab418dbf7" x="193.647233" y="253.998979" style="stroke: #000000; stroke-width: 0.8"/>
      </g>
     </g>
     <g id="text_3">
      <!-- 3 -->
      <g transform="translate(190.465983 268.596635) scale(0.1 -0.1)">
       <defs>
        <path id="DejaVuSans-16" d="M 2597 2516 
Q 3050 2419 3304 2112 
Q 3559 1806 3559 1356 
Q 3559 666 3084 287 
Q 2609 -91 1734 -91 
Q 1441 -91 1130 -33 
Q 819 25 488 141 
L 488 750 
Q 750 597 1062 519 
Q 1375 441 1716 441 
Q 2309 441 2620 675 
Q 2931 909 2931 1356 
Q 2931 1769 2642 2001 
Q 2353 2234 1838 2234 
L 1294 2234 
L 1294 2753 
L 1863 2753 
Q 2328 2753 2575 2939 
Q 2822 3125 2822 3475 
Q 2822 3834 2567 4026 
Q 2313 4219 1838 4219 
Q 1578 4219 1281 4162 
Q 984 4106 628 3988 
L 628 4550 
Q 988 4650 1302 4700 
Q 1616 4750 1894 4750 
Q 2613 4750 3031 4423 
Q 3450 4097 3450 3541 
Q 3450 3153 3228 2886 
Q 3006 2619 2597 2516 
z
" transform="scale(0.015625)"/>
       </defs>
       <use xlink:href="#DejaVuSans-16"/>
      </g>
     </g>
    </g>
    <g id="xtick_4">
     <g id="line2d_4">
      <g>
       <use xlink:href="#m1ab418dbf7" x="254.164094" y="253.998979" style="stroke: #000000; stroke-width: 0.8"/>
      </g>
     </g>
     <g id="text_4">
      <!-- 4 -->
      <g transform="translate(250.982844 268.596635) scale(0.1 -0.1)">
       <defs>
        <path id="DejaVuSans-17" d="M 2419 4116 
L 825 1625 
L 2419 1625 
L 2419 4116 
z
M 2253 4666 
L 3047 4666 
L 3047 1625 
L 3713 1625 
L 3713 1100 
L 3047 1100 
L 3047 0 
L 2419 0 
L 2419 1100 
L 313 1100 
L 313 1709 
L 2253 4666 
z
" transform="scale(0.015625)"/>
       </defs>
       <use xlink:href="#DejaVuSans-17"/>
      </g>
     </g>
    </g>
    <g id="text_5">
     <!-- Candidate answer-list position -->
     <g transform="translate(87.957552 282.597416) scale(0.1 -0.1)">
      <defs>
       <path id="DejaVuSans-26" d="M 4122 4306 
L 4122 3641 
Q 3803 3938 3442 4084 
Q 3081 4231 2675 4231 
Q 1875 4231 1450 3742 
Q 1025 3253 1025 2328 
Q 1025 1406 1450 917 
Q 1875 428 2675 428 
Q 3081 428 3442 575 
Q 3803 722 4122 1019 
L 4122 359 
Q 3791 134 3420 21 
Q 3050 -91 2638 -91 
Q 1578 -91 968 557 
Q 359 1206 359 2328 
Q 359 3453 968 4101 
Q 1578 4750 2638 4750 
Q 3056 4750 3426 4639 
Q 3797 4528 4122 4306 
z
" transform="scale(0.015625)"/>
       <path id="DejaVuSans-44" d="M 2194 1759 
Q 1497 1759 1228 1600 
Q 959 1441 959 1056 
Q 959 750 1161 570 
Q 1363 391 1709 391 
Q 2188 391 2477 730 
Q 2766 1069 2766 1631 
L 2766 1759 
L 2194 1759 
z
M 3341 1997 
L 3341 0 
L 2766 0 
L 2766 531 
Q 2569 213 2275 61 
Q 1981 -91 1556 -91 
Q 1019 -91 701 211 
Q 384 513 384 1019 
Q 384 1609 779 1909 
Q 1175 2209 1959 2209 
L 2766 2209 
L 2766 2266 
Q 2766 2663 2505 2880 
Q 2244 3097 1772 3097 
Q 1472 3097 1187 3025 
Q 903 2953 641 2809 
L 641 3341 
Q 956 3463 1253 3523 
Q 1550 3584 1831 3584 
Q 2591 3584 2966 3190 
Q 3341 2797 3341 1997 
z
" transform="scale(0.015625)"/>
       <path id="DejaVuSans-51" d="M 3513 2113 
L 3513 0 
L 2938 0 
L 2938 2094 
Q 2938 2591 2744 2837 
Q 2550 3084 2163 3084 
Q 1697 3084 1428 2787 
Q 1159 2491 1159 1978 
L 1159 0 
L 581 0 
L 581 3500 
L 1159 3500 
L 1159 2956 
Q 1366 3272 1645 3428 
Q 1925 3584 2291 3584 
Q 2894 3584 3203 3211 
Q 3513 2838 3513 2113 
z
" transform="scale(0.015625)"/>
       <path id="DejaVuSans-47" d="M 2906 2969 
L 2906 4863 
L 3481 4863 
L 3481 0 
L 2906 0 
L 2906 525 
Q 2725 213 2448 61 
Q 2172 -91 1784 -91 
Q 1150 -91 751 415 
Q 353 922 353 1747 
Q 353 2572 751 3078 
Q 1150 3584 1784 3584 
Q 2172 3584 2448 3432 
Q 2725 3281 2906 2969 
z
M 947 1747 
Q 947 1113 1208 752 
Q 1469 391 1925 391 
Q 2381 391 2643 752 
Q 2906 1113 2906 1747 
Q 2906 2381 2643 2742 
Q 2381 3103 1925 3103 
Q 1469 3103 1208 2742 
Q 947 2381 947 1747 
z
" transform="scale(0.015625)"/>
       <path id="DejaVuSans-4c" d="M 603 3500 
L 1178 3500 
L 1178 0 
L 603 0 
L 603 3500 
z
M 603 4863 
L 1178 4863 
L 1178 4134 
L 603 4134 
L 603 4863 
z
" transform="scale(0.015625)"/>
       <path id="DejaVuSans-57" d="M 1172 4494 
L 1172 3500 
L 2356 3500 
L 2356 3053 
L 1172 3053 
L 1172 1153 
Q 1172 725 1289 603 
Q 1406 481 1766 481 
L 2356 481 
L 2356 0 
L 1766 0 
Q 1100 0 847 248 
Q 594 497 594 1153 
L 594 3053 
L 172 3053 
L 172 3500 
L 594 3500 
L 594 4494 
L 1172 4494 
z
" transform="scale(0.015625)"/>
       <path id="DejaVuSans-48" d="M 3597 1894 
L 3597 1613 
L 953 1613 
Q 991 1019 1311 708 
Q 1631 397 2203 397 
Q 2534 397 2845 478 
Q 3156 559 3463 722 
L 3463 178 
Q 3153 47 2828 -22 
Q 2503 -91 2169 -91 
Q 1331 -91 842 396 
Q 353 884 353 1716 
Q 353 2575 817 3079 
Q 1281 3584 2069 3584 
Q 2775 3584 3186 3129 
Q 3597 2675 3597 1894 
z
M 3022 2063 
Q 3016 2534 2758 2815 
Q 2500 3097 2075 3097 
Q 1594 3097 1305 2825 
Q 1016 2553 972 2059 
L 3022 2063 
z
" transform="scale(0.015625)"/>
       <path id="DejaVuSans-3" transform="scale(0.015625)"/>
       <path id="DejaVuSans-56" d="M 2834 3397 
L 2834 2853 
Q 2591 2978 2328 3040 
Q 2066 3103 1784 3103 
Q 1356 3103 1142 2972 
Q 928 2841 928 2578 
Q 928 2378 1081 2264 
Q 1234 2150 1697 2047 
L 1894 2003 
Q 2506 1872 2764 1633 
Q 3022 1394 3022 966 
Q 3022 478 2636 193 
Q 2250 -91 1575 -91 
Q 1294 -91 989 -36 
Q 684 19 347 128 
L 347 722 
Q 666 556 975 473 
Q 1284 391 1588 391 
Q 1994 391 2212 530 
Q 2431 669 2431 922 
Q 2431 1156 2273 1281 
Q 2116 1406 1581 1522 
L 1381 1569 
Q 847 1681 609 1914 
Q 372 2147 372 2553 
Q 372 3047 722 3315 
Q 1072 3584 1716 3584 
Q 2034 3584 2315 3537 
Q 2597 3491 2834 3397 
z
" transform="scale(0.015625)"/>
       <path id="DejaVuSans-5a" d="M 269 3500 
L 844 3500 
L 1563 769 
L 2278 3500 
L 2956 3500 
L 3675 769 
L 4391 3500 
L 4966 3500 
L 4050 0 
L 3372 0 
L 2619 2869 
L 1863 0 
L 1184 0 
L 269 3500 
z
" transform="scale(0.015625)"/>
       <path id="DejaVuSans-55" d="M 2631 2963 
Q 2534 3019 2420 3045 
Q 2306 3072 2169 3072 
Q 1681 3072 1420 2755 
Q 1159 2438 1159 1844 
L 1159 0 
L 581 0 
L 581 3500 
L 1159 3500 
L 1159 2956 
Q 1341 3275 1631 3429 
Q 1922 3584 2338 3584 
Q 2397 3584 2469 3576 
Q 2541 3569 2628 3553 
L 2631 2963 
z
" transform="scale(0.015625)"/>
       <path id="DejaVuSans-10" d="M 313 2009 
L 1997 2009 
L 1997 1497 
L 313 1497 
L 313 2009 
z
" transform="scale(0.015625)"/>
       <path id="DejaVuSans-4f" d="M 603 4863 
L 1178 4863 
L 1178 0 
L 603 0 
L 603 4863 
z
" transform="scale(0.015625)"/>
       <path id="DejaVuSans-53" d="M 1159 525 
L 1159 -1331 
L 581 -1331 
L 581 3500 
L 1159 3500 
L 1159 2969 
Q 1341 3281 1617 3432 
Q 1894 3584 2278 3584 
Q 2916 3584 3314 3078 
Q 3713 2572 3713 1747 
Q 3713 922 3314 415 
Q 2916 -91 2278 -91 
Q 1894 -91 1617 61 
Q 1341 213 1159 525 
z
M 3116 1747 
Q 3116 2381 2855 2742 
Q 2594 3103 2138 3103 
Q 1681 3103 1420 2742 
Q 1159 2381 1159 1747 
Q 1159 1113 1420 752 
Q 1681 391 2138 391 
Q 2594 391 2855 752 
Q 3116 1113 3116 1747 
z
" transform="scale(0.015625)"/>
       <path id="DejaVuSans-52" d="M 1959 3097 
Q 1497 3097 1228 2736 
Q 959 2375 959 1747 
Q 959 1119 1226 758 
Q 1494 397 1959 397 
Q 2419 397 2687 759 
Q 2956 1122 2956 1747 
Q 2956 2369 2687 2733 
Q 2419 3097 1959 3097 
z
M 1959 3584 
Q 2709 3584 3137 3096 
Q 3566 2609 3566 1747 
Q 3566 888 3137 398 
Q 2709 -91 1959 -91 
Q 1206 -91 779 398 
Q 353 888 353 1747 
Q 353 2609 779 3096 
Q 1206 3584 1959 3584 
z
" transform="scale(0.015625)"/>
      </defs>
      <use xlink:href="#DejaVuSans-26"/>
      <use xlink:href="#DejaVuSans-44" transform="translate(69.828125 0)"/>
      <use xlink:href="#DejaVuSans-51" transform="translate(131.109375 0)"/>
      <use xlink:href="#DejaVuSans-47" transform="translate(194.484375 0)"/>
      <use xlink:href="#DejaVuSans-4c" transform="translate(257.96875 0)"/>
      <use xlink:href="#DejaVuSans-47" transform="translate(285.75 0)"/>
      <use xlink:href="#DejaVuSans-44" transform="translate(349.234375 0)"/>
      <use xlink:href="#DejaVuSans-57" transform="translate(410.515625 0)"/>
      <use xlink:href="#DejaVuSans-48" transform="translate(449.71875 0)"/>
      <use xlink:href="#DejaVuSans-3" transform="translate(511.25 0)"/>
      <use xlink:href="#DejaVuSans-44" transform="translate(543.03125 0)"/>
      <use xlink:href="#DejaVuSans-51" transform="translate(604.3125 0)"/>
      <use xlink:href="#DejaVuSans-56" transform="translate(667.6875 0)"/>
      <use xlink:href="#DejaVuSans-5a" transform="translate(719.78125 0)"/>
      <use xlink:href="#DejaVuSans-48" transform="translate(801.5625 0)"/>
      <use xlink:href="#DejaVuSans-55" transform="translate(863.09375 0)"/>
      <use xlink:href="#DejaVuSans-10" transform="translate(897.8125 0)"/>
      <use xlink:href="#DejaVuSans-4f" transform="translate(933.890625 0)"/>
      <use xlink:href="#DejaVuSans-4c" transform="translate(961.671875 0)"/>
      <use xlink:href="#DejaVuSans-56" transform="translate(989.453125 0)"/>
      <use xlink:href="#DejaVuSans-57" transform="translate(1041.546875 0)"/>
      <use xlink:href="#DejaVuSans-3" transform="translate(1080.75 0)"/>
      <use xlink:href="#DejaVuSans-53" transform="translate(1112.53125 0)"/>
      <use xlink:href="#DejaVuSans-52" transform="translate(1176.015625 0)"/>
      <use xlink:href="#DejaVuSans-56" transform="translate(1237.203125 0)"/>
      <use xlink:href="#DejaVuSans-4c" transform="translate(1289.296875 0)"/>
      <use xlink:href="#DejaVuSans-57" transform="translate(1317.078125 0)"/>
      <use xlink:href="#DejaVuSans-4c" transform="translate(1356.28125 0)"/>
      <use xlink:href="#DejaVuSans-52" transform="translate(1384.0625 0)"/>
      <use xlink:href="#DejaVuSans-51" transform="translate(1445.25 0)"/>
     </g>
    </g>
   </g>
   <g id="matplotlib.axis_2">
    <g id="ytick_1">
     <g id="line2d_5">
      <defs>
       <path id="m1f2a878521" d="M 0 0 
L -3.5 0 
" style="stroke: #000000; stroke-width: 0.8"/>
      </defs>
      <g>
       <use xlink:href="#m1f2a878521" x="39.904146" y="253.998979" style="stroke: #000000; stroke-width: 0.8"/>
      </g>
     </g>
     <g id="text_6">
      <!-- 0.0 -->
      <g transform="translate(17.001021 257.797807) scale(0.1 -0.1)">
       <defs>
        <path id="DejaVuSans-13" d="M 2034 4250 
Q 1547 4250 1301 3770 
Q 1056 3291 1056 2328 
Q 1056 1369 1301 889 
Q 1547 409 2034 409 
Q 2525 409 2770 889 
Q 3016 1369 3016 2328 
Q 3016 3291 2770 3770 
Q 2525 4250 2034 4250 
z
M 2034 4750 
Q 2819 4750 3233 4129 
Q 3647 3509 3647 2328 
Q 3647 1150 3233 529 
Q 2819 -91 2034 -91 
Q 1250 -91 836 529 
Q 422 1150 422 2328 
Q 422 3509 836 4129 
Q 1250 4750 2034 4750 
z
" transform="scale(0.015625)"/>
        <path id="DejaVuSans-11" d="M 684 794 
L 1344 794 
L 1344 0 
L 684 0 
L 684 794 
z
" transform="scale(0.015625)"/>
       </defs>
       <use xlink:href="#DejaVuSans-13"/>
       <use xlink:href="#DejaVuSans-11" transform="translate(63.625 0)"/>
       <use xlink:href="#DejaVuSans-13" transform="translate(95.40625 0)"/>
      </g>
     </g>
    </g>
    <g id="ytick_2">
     <g id="line2d_6">
      <g>
       <use xlink:href="#m1f2a878521" x="39.904146" y="210.423139" style="stroke: #000000; stroke-width: 0.8"/>
      </g>
     </g>
     <g id="text_7">
      <!-- 0.2 -->
      <g transform="translate(17.001021 214.221968) scale(0.1 -0.1)">
       <use xlink:href="#DejaVuSans-13"/>
       <use xlink:href="#DejaVuSans-11" transform="translate(63.625 0)"/>
       <use xlink:href="#DejaVuSans-15" transform="translate(95.40625 0)"/>
      </g>
     </g>
    </g>
    <g id="ytick_3">
     <g id="line2d_7">
      <g>
       <use xlink:href="#m1f2a878521" x="39.904146" y="166.8473" style="stroke: #000000; stroke-width: 0.8"/>
      </g>
     </g>
     <g id="text_8">
      <!-- 0.4 -->
      <g transform="translate(17.001021 170.646128) scale(0.1 -0.1)">
       <use xlink:href="#DejaVuSans-13"/>
       <use xlink:href="#DejaVuSans-11" transform="translate(63.625 0)"/>
       <use xlink:href="#DejaVuSans-17" transform="translate(95.40625 0)"/>
      </g>
     </g>
    </g>
    <g id="ytick_4">
     <g id="line2d_8">
      <g>
       <use xlink:href="#m1f2a878521" x="39.904146" y="123.271461" style="stroke: #000000; stroke-width: 0.8"/>
      </g>
     </g>
     <g id="text_9">
      <!-- 0.6 -->
      <g transform="translate(17.001021 127.070289) scale(0.1 -0.1)">
       <defs>
        <path id="DejaVuSans-19" d="M 2113 2584 
Q 1688 2584 1439 2293 
Q 1191 2003 1191 1497 
Q 1191 994 1439 701 
Q 1688 409 2113 409 
Q 2538 409 2786 701 
Q 3034 994 3034 1497 
Q 3034 2003 2786 2293 
Q 2538 2584 2113 2584 
z
M 3366 4563 
L 3366 3988 
Q 3128 4100 2886 4159 
Q 2644 4219 2406 4219 
Q 1781 4219 1451 3797 
Q 1122 3375 1075 2522 
Q 1259 2794 1537 2939 
Q 1816 3084 2150 3084 
Q 2853 3084 3261 2657 
Q 3669 2231 3669 1497 
Q 3669 778 3244 343 
Q 2819 -91 2113 -91 
Q 1303 -91 875 529 
Q 447 1150 447 2328 
Q 447 3434 972 4092 
Q 1497 4750 2381 4750 
Q 2619 4750 2861 4703 
Q 3103 4656 3366 4563 
z
" transform="scale(0.015625)"/>
       </defs>
       <use xlink:href="#DejaVuSans-13"/>
       <use xlink:href="#DejaVuSans-11" transform="translate(63.625 0)"/>
       <use xlink:href="#DejaVuSans-19" transform="translate(95.40625 0)"/>
      </g>
     </g>
    </g>
    <g id="ytick_5">
     <g id="line2d_9">
      <g>
       <use xlink:href="#m1f2a878521" x="39.904146" y="79.695622" style="stroke: #000000; stroke-width: 0.8"/>
      </g>
     </g>
     <g id="text_10">
      <!-- 0.8 -->
      <g transform="translate(17.001021 83.49445) scale(0.1 -0.1)">
       <defs>
        <path id="DejaVuSans-1b" d="M 2034 2216 
Q 1584 2216 1326 1975 
Q 1069 1734 1069 1313 
Q 1069 891 1326 650 
Q 1584 409 2034 409 
Q 2484 409 2743 651 
Q 3003 894 3003 1313 
Q 3003 1734 2745 1975 
Q 2488 2216 2034 2216 
z
M 1403 2484 
Q 997 2584 770 2862 
Q 544 3141 544 3541 
Q 544 4100 942 4425 
Q 1341 4750 2034 4750 
Q 2731 4750 3128 4425 
Q 3525 4100 3525 3541 
Q 3525 3141 3298 2862 
Q 3072 2584 2669 2484 
Q 3125 2378 3379 2068 
Q 3634 1759 3634 1313 
Q 3634 634 3220 271 
Q 2806 -91 2034 -91 
Q 1263 -91 848 271 
Q 434 634 434 1313 
Q 434 1759 690 2068 
Q 947 2378 1403 2484 
z
M 1172 3481 
Q 1172 3119 1398 2916 
Q 1625 2713 2034 2713 
Q 2441 2713 2670 2916 
Q 2900 3119 2900 3481 
Q 2900 3844 2670 4047 
Q 2441 4250 2034 4250 
Q 1625 4250 1398 4047 
Q 1172 3844 1172 3481 
z
" transform="scale(0.015625)"/>
       </defs>
       <use xlink:href="#DejaVuSans-13"/>
       <use xlink:href="#DejaVuSans-11" transform="translate(63.625 0)"/>
       <use xlink:href="#DejaVuSans-1b" transform="translate(95.40625 0)"/>
      </g>
     </g>
    </g>
    <g id="ytick_6">
     <g id="line2d_10">
      <g>
       <use xlink:href="#m1f2a878521" x="39.904146" y="36.119782" style="stroke: #000000; stroke-width: 0.8"/>
      </g>
     </g>
     <g id="text_11">
      <!-- 1.0 -->
      <g transform="translate(17.001021 39.918611) scale(0.1 -0.1)">
       <use xlink:href="#DejaVuSans-14"/>
       <use xlink:href="#DejaVuSans-11" transform="translate(63.625 0)"/>
       <use xlink:href="#DejaVuSans-13" transform="translate(95.40625 0)"/>
      </g>
     </g>
    </g>
    <g id="text_12">
     <!-- Proportion (descriptive) -->
     <g transform="translate(10.598677 203.957037) rotate(-90) scale(0.1 -0.1)">
      <defs>
       <path id="DejaVuSans-33" d="M 1259 4147 
L 1259 2394 
L 2053 2394 
Q 2494 2394 2734 2622 
Q 2975 2850 2975 3272 
Q 2975 3691 2734 3919 
Q 2494 4147 2053 4147 
L 1259 4147 
z
M 628 4666 
L 2053 4666 
Q 2838 4666 3239 4311 
Q 3641 3956 3641 3272 
Q 3641 2581 3239 2228 
Q 2838 1875 2053 1875 
L 1259 1875 
L 1259 0 
L 628 0 
L 628 4666 
z
" transform="scale(0.015625)"/>
       <path id="DejaVuSans-b" d="M 1984 4856 
Q 1566 4138 1362 3434 
Q 1159 2731 1159 2009 
Q 1159 1288 1364 580 
Q 1569 -128 1984 -844 
L 1484 -844 
Q 1016 -109 783 600 
Q 550 1309 550 2009 
Q 550 2706 781 3412 
Q 1013 4119 1484 4856 
L 1984 4856 
z
" transform="scale(0.015625)"/>
       <path id="DejaVuSans-46" d="M 3122 3366 
L 3122 2828 
Q 2878 2963 2633 3030 
Q 2388 3097 2138 3097 
Q 1578 3097 1268 2742 
Q 959 2388 959 1747 
Q 959 1106 1268 751 
Q 1578 397 2138 397 
Q 2388 397 2633 464 
Q 2878 531 3122 666 
L 3122 134 
Q 2881 22 2623 -34 
Q 2366 -91 2075 -91 
Q 1284 -91 818 406 
Q 353 903 353 1747 
Q 353 2603 823 3093 
Q 1294 3584 2113 3584 
Q 2378 3584 2631 3529 
Q 2884 3475 3122 3366 
z
" transform="scale(0.015625)"/>
       <path id="DejaVuSans-59" d="M 191 3500 
L 800 3500 
L 1894 563 
L 2988 3500 
L 3597 3500 
L 2284 0 
L 1503 0 
L 191 3500 
z
" transform="scale(0.015625)"/>
       <path id="DejaVuSans-c" d="M 513 4856 
L 1013 4856 
Q 1481 4119 1714 3412 
Q 1947 2706 1947 2009 
Q 1947 1309 1714 600 
Q 1481 -109 1013 -844 
L 513 -844 
Q 928 -128 1133 580 
Q 1338 1288 1338 2009 
Q 1338 2731 1133 3434 
Q 928 4138 513 4856 
z
" transform="scale(0.015625)"/>
      </defs>
      <use xlink:href="#DejaVuSans-33"/>
      <use xlink:href="#DejaVuSans-55" transform="translate(58.546875 0)"/>
      <use xlink:href="#DejaVuSans-52" transform="translate(97.453125 0)"/>
      <use xlink:href="#DejaVuSans-53" transform="translate(158.640625 0)"/>
      <use xlink:href="#DejaVuSans-52" transform="translate(222.125 0)"/>
      <use xlink:href="#DejaVuSans-55" transform="translate(283.3125 0)"/>
      <use xlink:href="#DejaVuSans-57" transform="translate(324.421875 0)"/>
      <use xlink:href="#DejaVuSans-4c" transform="translate(363.625 0)"/>
      <use xlink:href="#DejaVuSans-52" transform="translate(391.40625 0)"/>
      <use xlink:href="#DejaVuSans-51" transform="translate(452.59375 0)"/>
      <use xlink:href="#DejaVuSans-3" transform="translate(515.96875 0)"/>
      <use xlink:href="#DejaVuSans-b" transform="translate(547.75 0)"/>
      <use xlink:href="#DejaVuSans-47" transform="translate(586.765625 0)"/>
      <use xlink:href="#DejaVuSans-48" transform="translate(650.25 0)"/>
      <use xlink:href="#DejaVuSans-56" transform="translate(711.78125 0)"/>
      <use xlink:href="#DejaVuSans-46" transform="translate(763.875 0)"/>
      <use xlink:href="#DejaVuSans-55" transform="translate(818.859375 0)"/>
      <use xlink:href="#DejaVuSans-4c" transform="translate(859.96875 0)"/>
      <use xlink:href="#DejaVuSans-53" transform="translate(887.75 0)"/>
      <use xlink:href="#DejaVuSans-57" transform="translate(951.234375 0)"/>
      <use xlink:href="#DejaVuSans-4c" transform="translate(990.4375 0)"/>
      <use xlink:href="#DejaVuSans-59" transform="translate(1018.21875 0)"/>
      <use xlink:href="#DejaVuSans-48" transform="translate(1077.40625 0)"/>
      <use xlink:href="#DejaVuSans-c" transform="translate(1138.9375 0)"/>
     </g>
    </g>
   </g>
   <g id="line2d_11">
    <path d="M 39.904146 199.52918 
L 286.873458 199.52918 
" clip-path="url(#pa0702aac7e)" style="fill: none; stroke-dasharray: 3.7,1.6; stroke-dashoffset: 0; stroke: #808080"/>
   </g>
   <g id="patch_15">
    <path d="M 39.904146 253.998979 
L 39.904146 36.119782 
" style="fill: none; stroke: #000000; stroke-width: 0.8; stroke-linejoin: miter; stroke-linecap: square"/>
   </g>
   <g id="patch_16">
    <path d="M 39.904146 253.998979 
L 286.873458 253.998979 
" style="fill: none; stroke: #000000; stroke-width: 0.8; stroke-linejoin: miter; stroke-linecap: square"/>
   </g>
   <g id="text_13">
    <!-- Position selection rate -->
    <g transform="translate(97.058802 30.119782) scale(0.12 -0.12)">
     <use xlink:href="#DejaVuSans-33"/>
     <use xlink:href="#DejaVuSans-52" transform="translate(56.734375 0)"/>
     <use xlink:href="#DejaVuSans-56" transform="translate(117.921875 0)"/>
     <use xlink:href="#DejaVuSans-4c" transform="translate(170.015625 0)"/>
     <use xlink:href="#DejaVuSans-57" transform="translate(197.796875 0)"/>
     <use xlink:href="#DejaVuSans-4c" transform="translate(237 0)"/>
     <use xlink:href="#DejaVuSans-52" transform="translate(264.78125 0)"/>
     <use xlink:href="#DejaVuSans-51" transform="translate(325.96875 0)"/>
     <use xlink:href="#DejaVuSans-3" transform="translate(389.34375 0)"/>
     <use xlink:href="#DejaVuSans-56" transform="translate(421.125 0)"/>
     <use xlink:href="#DejaVuSans-48" transform="translate(473.21875 0)"/>
     <use xlink:href="#DejaVuSans-4f" transform="translate(534.75 0)"/>
     <use xlink:href="#DejaVuSans-48" transform="translate(562.53125 0)"/>
     <use xlink:href="#DejaVuSans-46" transform="translate(624.0625 0)"/>
     <use xlink:href="#DejaVuSans-57" transform="translate(679.046875 0)"/>
     <use xlink:href="#DejaVuSans-4c" transform="translate(718.25 0)"/>
     <use xlink:href="#DejaVuSans-52" transform="translate(746.03125 0)"/>
     <use xlink:href="#DejaVuSans-51" transform="translate(807.21875 0)"/>
     <use xlink:href="#DejaVuSans-3" transform="translate(870.59375 0)"/>
     <use xlink:href="#DejaVuSans-55" transform="translate(902.375 0)"/>
     <use xlink:href="#DejaVuSans-44" transform="translate(943.484375 0)"/>
     <use xlink:href="#DejaVuSans-57" transform="translate(1004.765625 0)"/>
     <use xlink:href="#DejaVuSans-48" transform="translate(1043.96875 0)"/>
    </g>
   </g>
   <g id="legend_1">
    <g id="patch_17">
     <path d="M 234.065958 49.398532 
L 250.065958 49.398532 
L 250.065958 43.798532 
L 234.065958 43.798532 
z
" style="fill: #277da8"/>
    </g>
    <g id="text_14">
     <!-- EASY -->
     <g transform="translate(256.465958 49.398532) scale(0.08 -0.08)">
      <defs>
       <path id="DejaVuSans-28" d="M 628 4666 
L 3578 4666 
L 3578 4134 
L 1259 4134 
L 1259 2753 
L 3481 2753 
L 3481 2222 
L 1259 2222 
L 1259 531 
L 3634 531 
L 3634 0 
L 628 0 
L 628 4666 
z
" transform="scale(0.015625)"/>
       <path id="DejaVuSans-24" d="M 2188 4044 
L 1331 1722 
L 3047 1722 
L 2188 4044 
z
M 1831 4666 
L 2547 4666 
L 4325 0 
L 3669 0 
L 3244 1197 
L 1141 1197 
L 716 0 
L 50 0 
L 1831 4666 
z
" transform="scale(0.015625)"/>
       <path id="DejaVuSans-36" d="M 3425 4513 
L 3425 3897 
Q 3066 4069 2747 4153 
Q 2428 4238 2131 4238 
Q 1616 4238 1336 4038 
Q 1056 3838 1056 3469 
Q 1056 3159 1242 3001 
Q 1428 2844 1947 2747 
L 2328 2669 
Q 3034 2534 3370 2195 
Q 3706 1856 3706 1288 
Q 3706 609 3251 259 
Q 2797 -91 1919 -91 
Q 1588 -91 1214 -16 
Q 841 59 441 206 
L 441 856 
Q 825 641 1194 531 
Q 1563 422 1919 422 
Q 2459 422 2753 634 
Q 3047 847 3047 1241 
Q 3047 1584 2836 1778 
Q 2625 1972 2144 2069 
L 1759 2144 
Q 1053 2284 737 2584 
Q 422 2884 422 3419 
Q 422 4038 858 4394 
Q 1294 4750 2059 4750 
Q 2388 4750 2728 4690 
Q 3069 4631 3425 4513 
z
" transform="scale(0.015625)"/>
       <path id="DejaVuSans-3c" d="M -13 4666 
L 666 4666 
L 1959 2747 
L 3244 4666 
L 3922 4666 
L 2272 2222 
L 2272 0 
L 1638 0 
L 1638 2222 
L -13 4666 
z
" transform="scale(0.015625)"/>
      </defs>
      <use xlink:href="#DejaVuSans-28"/>
      <use xlink:href="#DejaVuSans-24" transform="translate(63.1875 0)"/>
      <use xlink:href="#DejaVuSans-36" transform="translate(131.59375 0)"/>
      <use xlink:href="#DejaVuSans-3c" transform="translate(195.078125 0)"/>
     </g>
    </g>
    <g id="patch_18">
     <path d="M 234.065958 61.399158 
L 250.065958 61.399158 
L 250.065958 55.799157 
L 234.065958 55.799157 
z
" style="fill: #f8961e"/>
    </g>
    <g id="text_15">
     <!-- MID -->
     <g transform="translate(256.465958 61.399158) scale(0.08 -0.08)">
      <defs>
       <path id="DejaVuSans-30" d="M 628 4666 
L 1569 4666 
L 2759 1491 
L 3956 4666 
L 4897 4666 
L 4897 0 
L 4281 0 
L 4281 4097 
L 3078 897 
L 2444 897 
L 1241 4097 
L 1241 0 
L 628 0 
L 628 4666 
z
" transform="scale(0.015625)"/>
       <path id="DejaVuSans-2c" d="M 628 4666 
L 1259 4666 
L 1259 0 
L 628 0 
L 628 4666 
z
" transform="scale(0.015625)"/>
       <path id="DejaVuSans-27" d="M 1259 4147 
L 1259 519 
L 2022 519 
Q 2988 519 3436 956 
Q 3884 1394 3884 2338 
Q 3884 3275 3436 3711 
Q 2988 4147 2022 4147 
L 1259 4147 
z
M 628 4666 
L 1925 4666 
Q 3281 4666 3915 4102 
Q 4550 3538 4550 2338 
Q 4550 1131 3912 565 
Q 3275 0 1925 0 
L 628 0 
L 628 4666 
z
" transform="scale(0.015625)"/>
      </defs>
      <use xlink:href="#DejaVuSans-30"/>
      <use xlink:href="#DejaVuSans-2c" transform="translate(86.28125 0)"/>
      <use xlink:href="#DejaVuSans-27" transform="translate(115.78125 0)"/>
     </g>
    </g>
    <g id="patch_19">
     <path d="M 234.065958 73.399782 
L 250.065958 73.399782 
L 250.065958 67.799782 
L 234.065958 67.799782 
z
" style="fill: #a84469"/>
    </g>
    <g id="text_16">
     <!-- HARD -->
     <g transform="translate(256.465958 73.399782) scale(0.08 -0.08)">
      <defs>
       <path id="DejaVuSans-2b" d="M 628 4666 
L 1259 4666 
L 1259 2753 
L 3553 2753 
L 3553 4666 
L 4184 4666 
L 4184 0 
L 3553 0 
L 3553 2222 
L 1259 2222 
L 1259 0 
L 628 0 
L 628 4666 
z
" transform="scale(0.015625)"/>
       <path id="DejaVuSans-35" d="M 2841 2188 
Q 3044 2119 3236 1894 
Q 3428 1669 3622 1275 
L 4263 0 
L 3584 0 
L 2988 1197 
Q 2756 1666 2539 1819 
Q 2322 1972 1947 1972 
L 1259 1972 
L 1259 0 
L 628 0 
L 628 4666 
L 2053 4666 
Q 2853 4666 3247 4331 
Q 3641 3997 3641 3322 
Q 3641 2881 3436 2590 
Q 3231 2300 2841 2188 
z
M 1259 4147 
L 1259 2491 
L 2053 2491 
Q 2509 2491 2742 2702 
Q 2975 2913 2975 3322 
Q 2975 3731 2742 3939 
Q 2509 4147 2053 4147 
L 1259 4147 
z
" transform="scale(0.015625)"/>
      </defs>
      <use xlink:href="#DejaVuSans-2b"/>
      <use xlink:href="#DejaVuSans-24" transform="translate(75.203125 0)"/>
      <use xlink:href="#DejaVuSans-35" transform="translate(143.609375 0)"/>
      <use xlink:href="#DejaVuSans-27" transform="translate(213.09375 0)"/>
     </g>
    </g>
   </g>
  </g>
  <g id="axes_2">
   <g id="patch_20">
    <path d="M 315.777063 253.998979 
L 562.746375 253.998979 
L 562.746375 36.119782 
L 315.777063 36.119782 
z
" style="fill: #ffffff"/>
   </g>
   <g id="patch_21">
    <path d="M 327.002941 253.998979 
L 340.921819 253.998979 
L 340.921819 36.119782 
L 327.002941 36.119782 
z
" clip-path="url(#pec65208e26)" style="fill: #277da8"/>
   </g>
   <g id="patch_22">
    <path d="M 387.519802 253.998979 
L 401.43868 253.998979 
L 401.43868 72.432982 
L 387.519802 72.432982 
z
" clip-path="url(#pec65208e26)" style="fill: #277da8"/>
   </g>
   <g id="patch_23">
    <path d="M 448.036664 253.998979 
L 461.955542 253.998979 
L 461.955542 72.432982 
L 448.036664 72.432982 
z
" clip-path="url(#pec65208e26)" style="fill: #277da8"/>
   </g>
   <g id="patch_24">
    <path d="M 508.553525 253.998979 
L 522.472403 253.998979 
L 522.472403 72.432982 
L 508.553525 72.432982 
z
" clip-path="url(#pec65208e26)" style="fill: #277da8"/>
   </g>
   <g id="patch_25">
    <path d="M 341.526987 253.998979 
L 355.445866 253.998979 
L 355.445866 36.119782 
L 341.526987 36.119782 
z
" clip-path="url(#pec65208e26)" style="fill: #f8961e"/>
   </g>
   <g id="patch_26">
    <path d="M 402.043849 253.998979 
L 415.962727 253.998979 
L 415.962727 145.059381 
L 402.043849 145.059381 
z
" clip-path="url(#pec65208e26)" style="fill: #f8961e"/>
   </g>
   <g id="patch_27">
    <path d="M 462.56071 253.998979 
L 476.479589 253.998979 
L 476.479589 145.059381 
L 462.56071 145.059381 
z
" clip-path="url(#pec65208e26)" style="fill: #f8961e"/>
   </g>
   <g id="patch_28">
    <path d="M 523.077572 253.998979 
L 536.99645 253.998979 
L 536.99645 72.432982 
L 523.077572 72.432982 
z
" clip-path="url(#pec65208e26)" style="fill: #f8961e"/>
   </g>
   <g id="patch_29">
    <path d="M 356.051034 253.998979 
L 369.969912 253.998979 
L 369.969912 72.432982 
L 356.051034 72.432982 
z
" clip-path="url(#pec65208e26)" style="fill: #a84469"/>
   </g>
   <g id="patch_30">
    <path d="M 416.567896 253.998979 
L 430.486774 253.998979 
L 430.486774 181.37258 
L 416.567896 181.37258 
z
" clip-path="url(#pec65208e26)" style="fill: #a84469"/>
   </g>
   <g id="patch_31">
    <path d="M 477.084757 253.998979 
L 491.003635 253.998979 
L 491.003635 145.059381 
L 477.084757 145.059381 
z
" clip-path="url(#pec65208e26)" style="fill: #a84469"/>
   </g>
   <g id="patch_32">
    <path d="M 537.601619 253.998979 
L 551.520497 253.998979 
L 551.520497 181.37258 
L 537.601619 181.37258 
z
" clip-path="url(#pec65208e26)" style="fill: #a84469"/>
   </g>
   <g id="matplotlib.axis_3">
    <g id="xtick_5">
     <g id="line2d_12">
      <g>
       <use xlink:href="#m1ab418dbf7" x="348.486427" y="253.998979" style="stroke: #000000; stroke-width: 0.8"/>
      </g>
     </g>
     <g id="text_17">
      <!-- 1 -->
      <g transform="translate(345.305177 268.596635) scale(0.1 -0.1)">
       <use xlink:href="#DejaVuSans-14"/>
      </g>
     </g>
    </g>
    <g id="xtick_6">
     <g id="line2d_13">
      <g>
       <use xlink:href="#m1ab418dbf7" x="409.003288" y="253.998979" style="stroke: #000000; stroke-width: 0.8"/>
      </g>
     </g>
     <g id="text_18">
      <!-- 2 -->
      <g transform="translate(405.822038 268.596635) scale(0.1 -0.1)">
       <use xlink:href="#DejaVuSans-15"/>
      </g>
     </g>
    </g>
    <g id="xtick_7">
     <g id="line2d_14">
      <g>
       <use xlink:href="#m1ab418dbf7" x="469.520149" y="253.998979" style="stroke: #000000; stroke-width: 0.8"/>
      </g>
     </g>
     <g id="text_19">
      <!-- 3 -->
      <g transform="translate(466.338899 268.596635) scale(0.1 -0.1)">
       <use xlink:href="#DejaVuSans-16"/>
      </g>
     </g>
    </g>
    <g id="xtick_8">
     <g id="line2d_15">
      <g>
       <use xlink:href="#m1ab418dbf7" x="530.037011" y="253.998979" style="stroke: #000000; stroke-width: 0.8"/>
      </g>
     </g>
     <g id="text_20">
      <!-- 4 -->
      <g transform="translate(526.855761 268.596635) scale(0.1 -0.1)">
       <use xlink:href="#DejaVuSans-17"/>
      </g>
     </g>
    </g>
    <g id="text_21">
     <!-- Candidate answer-list position -->
     <g transform="translate(363.830469 282.597416) scale(0.1 -0.1)">
      <use xlink:href="#DejaVuSans-26"/>
      <use xlink:href="#DejaVuSans-44" transform="translate(69.828125 0)"/>
      <use xlink:href="#DejaVuSans-51" transform="translate(131.109375 0)"/>
      <use xlink:href="#DejaVuSans-47" transform="translate(194.484375 0)"/>
      <use xlink:href="#DejaVuSans-4c" transform="translate(257.96875 0)"/>
      <use xlink:href="#DejaVuSans-47" transform="translate(285.75 0)"/>
      <use xlink:href="#DejaVuSans-44" transform="translate(349.234375 0)"/>
      <use xlink:href="#DejaVuSans-57" transform="translate(410.515625 0)"/>
      <use xlink:href="#DejaVuSans-48" transform="translate(449.71875 0)"/>
      <use xlink:href="#DejaVuSans-3" transform="translate(511.25 0)"/>
      <use xlink:href="#DejaVuSans-44" transform="translate(543.03125 0)"/>
      <use xlink:href="#DejaVuSans-51" transform="translate(604.3125 0)"/>
      <use xlink:href="#DejaVuSans-56" transform="translate(667.6875 0)"/>
      <use xlink:href="#DejaVuSans-5a" transform="translate(719.78125 0)"/>
      <use xlink:href="#DejaVuSans-48" transform="translate(801.5625 0)"/>
      <use xlink:href="#DejaVuSans-55" transform="translate(863.09375 0)"/>
      <use xlink:href="#DejaVuSans-10" transform="translate(897.8125 0)"/>
      <use xlink:href="#DejaVuSans-4f" transform="translate(933.890625 0)"/>
      <use xlink:href="#DejaVuSans-4c" transform="translate(961.671875 0)"/>
      <use xlink:href="#DejaVuSans-56" transform="translate(989.453125 0)"/>
      <use xlink:href="#DejaVuSans-57" transform="translate(1041.546875 0)"/>
      <use xlink:href="#DejaVuSans-3" transform="translate(1080.75 0)"/>
      <use xlink:href="#DejaVuSans-53" transform="translate(1112.53125 0)"/>
      <use xlink:href="#DejaVuSans-52" transform="translate(1176.015625 0)"/>
      <use xlink:href="#DejaVuSans-56" transform="translate(1237.203125 0)"/>
      <use xlink:href="#DejaVuSans-4c" transform="translate(1289.296875 0)"/>
      <use xlink:href="#DejaVuSans-57" transform="translate(1317.078125 0)"/>
      <use xlink:href="#DejaVuSans-4c" transform="translate(1356.28125 0)"/>
      <use xlink:href="#DejaVuSans-52" transform="translate(1384.0625 0)"/>
      <use xlink:href="#DejaVuSans-51" transform="translate(1445.25 0)"/>
     </g>
    </g>
   </g>
   <g id="matplotlib.axis_4">
    <g id="ytick_7">
     <g id="line2d_16">
      <g>
       <use xlink:href="#m1f2a878521" x="315.777063" y="253.998979" style="stroke: #000000; stroke-width: 0.8"/>
      </g>
     </g>
     <g id="text_22">
      <!-- 0.0 -->
      <g transform="translate(292.873938 257.797807) scale(0.1 -0.1)">
       <use xlink:href="#DejaVuSans-13"/>
       <use xlink:href="#DejaVuSans-11" transform="translate(63.625 0)"/>
       <use xlink:href="#DejaVuSans-13" transform="translate(95.40625 0)"/>
      </g>
     </g>
    </g>
    <g id="ytick_8">
     <g id="line2d_17">
      <g>
       <use xlink:href="#m1f2a878521" x="315.777063" y="210.423139" style="stroke: #000000; stroke-width: 0.8"/>
      </g>
     </g>
     <g id="text_23">
      <!-- 0.2 -->
      <g transform="translate(292.873938 214.221968) scale(0.1 -0.1)">
       <use xlink:href="#DejaVuSans-13"/>
       <use xlink:href="#DejaVuSans-11" transform="translate(63.625 0)"/>
       <use xlink:href="#DejaVuSans-15" transform="translate(95.40625 0)"/>
      </g>
     </g>
    </g>
    <g id="ytick_9">
     <g id="line2d_18">
      <g>
       <use xlink:href="#m1f2a878521" x="315.777063" y="166.8473" style="stroke: #000000; stroke-width: 0.8"/>
      </g>
     </g>
     <g id="text_24">
      <!-- 0.4 -->
      <g transform="translate(292.873938 170.646128) scale(0.1 -0.1)">
       <use xlink:href="#DejaVuSans-13"/>
       <use xlink:href="#DejaVuSans-11" transform="translate(63.625 0)"/>
       <use xlink:href="#DejaVuSans-17" transform="translate(95.40625 0)"/>
      </g>
     </g>
    </g>
    <g id="ytick_10">
     <g id="line2d_19">
      <g>
       <use xlink:href="#m1f2a878521" x="315.777063" y="123.271461" style="stroke: #000000; stroke-width: 0.8"/>
      </g>
     </g>
     <g id="text_25">
      <!-- 0.6 -->
      <g transform="translate(292.873938 127.070289) scale(0.1 -0.1)">
       <use xlink:href="#DejaVuSans-13"/>
       <use xlink:href="#DejaVuSans-11" transform="translate(63.625 0)"/>
       <use xlink:href="#DejaVuSans-19" transform="translate(95.40625 0)"/>
      </g>
     </g>
    </g>
    <g id="ytick_11">
     <g id="line2d_20">
      <g>
       <use xlink:href="#m1f2a878521" x="315.777063" y="79.695622" style="stroke: #000000; stroke-width: 0.8"/>
      </g>
     </g>
     <g id="text_26">
      <!-- 0.8 -->
      <g transform="translate(292.873938 83.49445) scale(0.1 -0.1)">
       <use xlink:href="#DejaVuSans-13"/>
       <use xlink:href="#DejaVuSans-11" transform="translate(63.625 0)"/>
       <use xlink:href="#DejaVuSans-1b" transform="translate(95.40625 0)"/>
      </g>
     </g>
    </g>
    <g id="ytick_12">
     <g id="line2d_21">
      <g>
       <use xlink:href="#m1f2a878521" x="315.777063" y="36.119782" style="stroke: #000000; stroke-width: 0.8"/>
      </g>
     </g>
     <g id="text_27">
      <!-- 1.0 -->
      <g transform="translate(292.873938 39.918611) scale(0.1 -0.1)">
       <use xlink:href="#DejaVuSans-14"/>
       <use xlink:href="#DejaVuSans-11" transform="translate(63.625 0)"/>
       <use xlink:href="#DejaVuSans-13" transform="translate(95.40625 0)"/>
      </g>
     </g>
    </g>
   </g>
   <g id="patch_33">
    <path d="M 315.777063 253.998979 
L 315.777063 36.119782 
" style="fill: none; stroke: #000000; stroke-width: 0.8; stroke-linejoin: miter; stroke-linecap: square"/>
   </g>
   <g id="patch_34">
    <path d="M 315.777063 253.998979 
L 562.746375 253.998979 
" style="fill: none; stroke: #000000; stroke-width: 0.8; stroke-linejoin: miter; stroke-linecap: square"/>
   </g>
   <g id="text_28">
    <!-- Accuracy by gold position -->
    <g transform="translate(362.065156 30.119782) scale(0.12 -0.12)">
     <defs>
      <path id="DejaVuSans-58" d="M 544 1381 
L 544 3500 
L 1119 3500 
L 1119 1403 
Q 1119 906 1312 657 
Q 1506 409 1894 409 
Q 2359 409 2629 706 
Q 2900 1003 2900 1516 
L 2900 3500 
L 3475 3500 
L 3475 0 
L 2900 0 
L 2900 538 
Q 2691 219 2414 64 
Q 2138 -91 1772 -91 
Q 1169 -91 856 284 
Q 544 659 544 1381 
z
M 1991 3584 
L 1991 3584 
z
" transform="scale(0.015625)"/>
      <path id="DejaVuSans-5c" d="M 2059 -325 
Q 1816 -950 1584 -1140 
Q 1353 -1331 966 -1331 
L 506 -1331 
L 506 -850 
L 844 -850 
Q 1081 -850 1212 -737 
Q 1344 -625 1503 -206 
L 1606 56 
L 191 3500 
L 800 3500 
L 1894 763 
L 2988 3500 
L 3597 3500 
L 2059 -325 
z
" transform="scale(0.015625)"/>
      <path id="DejaVuSans-45" d="M 3116 1747 
Q 3116 2381 2855 2742 
Q 2594 3103 2138 3103 
Q 1681 3103 1420 2742 
Q 1159 2381 1159 1747 
Q 1159 1113 1420 752 
Q 1681 391 2138 391 
Q 2594 391 2855 752 
Q 3116 1113 3116 1747 
z
M 1159 2969 
Q 1341 3281 1617 3432 
Q 1894 3584 2278 3584 
Q 2916 3584 3314 3078 
Q 3713 2572 3713 1747 
Q 3713 922 3314 415 
Q 2916 -91 2278 -91 
Q 1894 -91 1617 61 
Q 1341 213 1159 525 
L 1159 0 
L 581 0 
L 581 4863 
L 1159 4863 
L 1159 2969 
z
" transform="scale(0.015625)"/>
      <path id="DejaVuSans-4a" d="M 2906 1791 
Q 2906 2416 2648 2759 
Q 2391 3103 1925 3103 
Q 1463 3103 1205 2759 
Q 947 2416 947 1791 
Q 947 1169 1205 825 
Q 1463 481 1925 481 
Q 2391 481 2648 825 
Q 2906 1169 2906 1791 
z
M 3481 434 
Q 3481 -459 3084 -895 
Q 2688 -1331 1869 -1331 
Q 1566 -1331 1297 -1286 
Q 1028 -1241 775 -1147 
L 775 -588 
Q 1028 -725 1275 -790 
Q 1522 -856 1778 -856 
Q 2344 -856 2625 -561 
Q 2906 -266 2906 331 
L 2906 616 
Q 2728 306 2450 153 
Q 2172 0 1784 0 
Q 1141 0 747 490 
Q 353 981 353 1791 
Q 353 2603 747 3093 
Q 1141 3584 1784 3584 
Q 2172 3584 2450 3431 
Q 2728 3278 2906 2969 
L 2906 3500 
L 3481 3500 
L 3481 434 
z
" transform="scale(0.015625)"/>
     </defs>
     <use xlink:href="#DejaVuSans-24"/>
     <use xlink:href="#DejaVuSans-46" transform="translate(66.65625 0)"/>
     <use xlink:href="#DejaVuSans-46" transform="translate(121.640625 0)"/>
     <use xlink:href="#DejaVuSans-58" transform="translate(176.625 0)"/>
     <use xlink:href="#DejaVuSans-55" transform="translate(240 0)"/>
     <use xlink:href="#DejaVuSans-44" transform="translate(281.109375 0)"/>
     <use xlink:href="#DejaVuSans-46" transform="translate(342.390625 0)"/>
     <use xlink:href="#DejaVuSans-5c" transform="translate(397.375 0)"/>
     <use xlink:href="#DejaVuSans-3" transform="translate(456.5625 0)"/>
     <use xlink:href="#DejaVuSans-45" transform="translate(488.34375 0)"/>
     <use xlink:href="#DejaVuSans-5c" transform="translate(551.828125 0)"/>
     <use xlink:href="#DejaVuSans-3" transform="translate(611.015625 0)"/>
     <use xlink:href="#DejaVuSans-4a" transform="translate(642.796875 0)"/>
     <use xlink:href="#DejaVuSans-52" transform="translate(706.28125 0)"/>
     <use xlink:href="#DejaVuSans-4f" transform="translate(767.46875 0)"/>
     <use xlink:href="#DejaVuSans-47" transform="translate(795.25 0)"/>
     <use xlink:href="#DejaVuSans-3" transform="translate(858.734375 0)"/>
     <use xlink:href="#DejaVuSans-53" transform="translate(890.515625 0)"/>
     <use xlink:href="#DejaVuSans-52" transform="translate(954 0)"/>
     <use xlink:href="#DejaVuSans-56" transform="translate(1015.1875 0)"/>
     <use xlink:href="#DejaVuSans-4c" transform="translate(1067.28125 0)"/>
     <use xlink:href="#DejaVuSans-57" transform="translate(1095.0625 0)"/>
     <use xlink:href="#DejaVuSans-4c" transform="translate(1134.265625 0)"/>
     <use xlink:href="#DejaVuSans-52" transform="translate(1162.046875 0)"/>
     <use xlink:href="#DejaVuSans-51" transform="translate(1223.234375 0)"/>
    </g>
   </g>
  </g>
  <g id="axes_3">
   <g id="patch_35">
    <path d="M 614.030448 253.998979 
L 860.99976 253.998979 
L 860.99976 36.119782 
L 614.030448 36.119782 
z
" style="fill: #ffffff"/>
   </g>
   <g id="matplotlib.axis_5">
    <g id="xtick_9">
     <g id="line2d_22">
      <g>
       <use xlink:href="#m1ab418dbf7" x="625.256326" y="253.998979" style="stroke: #000000; stroke-width: 0.8"/>
      </g>
     </g>
     <g id="text_29">
      <!-- 1 -->
      <g transform="translate(622.075076 268.596635) scale(0.1 -0.1)">
       <use xlink:href="#DejaVuSans-14"/>
      </g>
     </g>
    </g>
    <g id="xtick_10">
     <g id="line2d_23">
      <g>
       <use xlink:href="#m1ab418dbf7" x="700.095511" y="253.998979" style="stroke: #000000; stroke-width: 0.8"/>
      </g>
     </g>
     <g id="text_30">
      <!-- 2 -->
      <g transform="translate(696.914261 268.596635) scale(0.1 -0.1)">
       <use xlink:href="#DejaVuSans-15"/>
      </g>
     </g>
    </g>
    <g id="xtick_11">
     <g id="line2d_24">
      <g>
       <use xlink:href="#m1ab418dbf7" x="774.934697" y="253.998979" style="stroke: #000000; stroke-width: 0.8"/>
      </g>
     </g>
     <g id="text_31">
      <!-- 3 -->
      <g transform="translate(771.753447 268.596635) scale(0.1 -0.1)">
       <use xlink:href="#DejaVuSans-16"/>
      </g>
     </g>
    </g>
    <g id="xtick_12">
     <g id="line2d_25">
      <g>
       <use xlink:href="#m1ab418dbf7" x="849.773882" y="253.998979" style="stroke: #000000; stroke-width: 0.8"/>
      </g>
     </g>
     <g id="text_32">
      <!-- 4 -->
      <g transform="translate(846.592632 268.596635) scale(0.1 -0.1)">
       <use xlink:href="#DejaVuSans-17"/>
      </g>
     </g>
    </g>
    <g id="text_33">
     <!-- Candidate answer-list position -->
     <g transform="translate(662.083854 282.597416) scale(0.1 -0.1)">
      <use xlink:href="#DejaVuSans-26"/>
      <use xlink:href="#DejaVuSans-44" transform="translate(69.828125 0)"/>
      <use xlink:href="#DejaVuSans-51" transform="translate(131.109375 0)"/>
      <use xlink:href="#DejaVuSans-47" transform="translate(194.484375 0)"/>
      <use xlink:href="#DejaVuSans-4c" transform="translate(257.96875 0)"/>
      <use xlink:href="#DejaVuSans-47" transform="translate(285.75 0)"/>
      <use xlink:href="#DejaVuSans-44" transform="translate(349.234375 0)"/>
      <use xlink:href="#DejaVuSans-57" transform="translate(410.515625 0)"/>
      <use xlink:href="#DejaVuSans-48" transform="translate(449.71875 0)"/>
      <use xlink:href="#DejaVuSans-3" transform="translate(511.25 0)"/>
      <use xlink:href="#DejaVuSans-44" transform="translate(543.03125 0)"/>
      <use xlink:href="#DejaVuSans-51" transform="translate(604.3125 0)"/>
      <use xlink:href="#DejaVuSans-56" transform="translate(667.6875 0)"/>
      <use xlink:href="#DejaVuSans-5a" transform="translate(719.78125 0)"/>
      <use xlink:href="#DejaVuSans-48" transform="translate(801.5625 0)"/>
      <use xlink:href="#DejaVuSans-55" transform="translate(863.09375 0)"/>
      <use xlink:href="#DejaVuSans-10" transform="translate(897.8125 0)"/>
      <use xlink:href="#DejaVuSans-4f" transform="translate(933.890625 0)"/>
      <use xlink:href="#DejaVuSans-4c" transform="translate(961.671875 0)"/>
      <use xlink:href="#DejaVuSans-56" transform="translate(989.453125 0)"/>
      <use xlink:href="#DejaVuSans-57" transform="translate(1041.546875 0)"/>
      <use xlink:href="#DejaVuSans-3" transform="translate(1080.75 0)"/>
      <use xlink:href="#DejaVuSans-53" transform="translate(1112.53125 0)"/>
      <use xlink:href="#DejaVuSans-52" transform="translate(1176.015625 0)"/>
      <use xlink:href="#DejaVuSans-56" transform="translate(1237.203125 0)"/>
      <use xlink:href="#DejaVuSans-4c" transform="translate(1289.296875 0)"/>
      <use xlink:href="#DejaVuSans-57" transform="translate(1317.078125 0)"/>
      <use xlink:href="#DejaVuSans-4c" transform="translate(1356.28125 0)"/>
      <use xlink:href="#DejaVuSans-52" transform="translate(1384.0625 0)"/>
      <use xlink:href="#DejaVuSans-51" transform="translate(1445.25 0)"/>
     </g>
    </g>
   </g>
   <g id="matplotlib.axis_6">
    <g id="ytick_13">
     <g id="line2d_26">
      <g>
       <use xlink:href="#m1f2a878521" x="614.030448" y="241.030984" style="stroke: #000000; stroke-width: 0.8"/>
      </g>
     </g>
     <g id="text_34">
      <!-- −1.0 -->
      <g transform="translate(582.747636 244.829812) scale(0.1 -0.1)">
       <defs>
        <path id="DejaVuSans-c9c" d="M 678 2272 
L 4684 2272 
L 4684 1741 
L 678 1741 
L 678 2272 
z
" transform="scale(0.015625)"/>
       </defs>
       <use xlink:href="#DejaVuSans-c9c"/>
       <use xlink:href="#DejaVuSans-14" transform="translate(83.796875 0)"/>
       <use xlink:href="#DejaVuSans-11" transform="translate(147.421875 0)"/>
       <use xlink:href="#DejaVuSans-13" transform="translate(179.203125 0)"/>
      </g>
     </g>
    </g>
    <g id="ytick_14">
     <g id="line2d_27">
      <g>
       <use xlink:href="#m1f2a878521" x="614.030448" y="215.545953" style="stroke: #000000; stroke-width: 0.8"/>
      </g>
     </g>
     <g id="text_35">
      <!-- −0.5 -->
      <g transform="translate(582.747636 219.344782) scale(0.1 -0.1)">
       <defs>
        <path id="DejaVuSans-18" d="M 691 4666 
L 3169 4666 
L 3169 4134 
L 1269 4134 
L 1269 2991 
Q 1406 3038 1543 3061 
Q 1681 3084 1819 3084 
Q 2600 3084 3056 2656 
Q 3513 2228 3513 1497 
Q 3513 744 3044 326 
Q 2575 -91 1722 -91 
Q 1428 -91 1123 -41 
Q 819 9 494 109 
L 494 744 
Q 775 591 1075 516 
Q 1375 441 1709 441 
Q 2250 441 2565 725 
Q 2881 1009 2881 1497 
Q 2881 1984 2565 2268 
Q 2250 2553 1709 2553 
Q 1456 2553 1204 2497 
Q 953 2441 691 2322 
L 691 4666 
z
" transform="scale(0.015625)"/>
       </defs>
       <use xlink:href="#DejaVuSans-c9c"/>
       <use xlink:href="#DejaVuSans-13" transform="translate(83.796875 0)"/>
       <use xlink:href="#DejaVuSans-11" transform="translate(147.421875 0)"/>
       <use xlink:href="#DejaVuSans-18" transform="translate(179.203125 0)"/>
      </g>
     </g>
    </g>
    <g id="ytick_15">
     <g id="line2d_28">
      <g>
       <use xlink:href="#m1f2a878521" x="614.030448" y="190.060923" style="stroke: #000000; stroke-width: 0.8"/>
      </g>
     </g>
     <g id="text_36">
      <!-- 0.0 -->
      <g transform="translate(591.127323 193.859751) scale(0.1 -0.1)">
       <use xlink:href="#DejaVuSans-13"/>
       <use xlink:href="#DejaVuSans-11" transform="translate(63.625 0)"/>
       <use xlink:href="#DejaVuSans-13" transform="translate(95.40625 0)"/>
      </g>
     </g>
    </g>
    <g id="ytick_16">
     <g id="line2d_29">
      <g>
       <use xlink:href="#m1f2a878521" x="614.030448" y="164.575893" style="stroke: #000000; stroke-width: 0.8"/>
      </g>
     </g>
     <g id="text_37">
      <!-- 0.5 -->
      <g transform="translate(591.127323 168.374721) scale(0.1 -0.1)">
       <use xlink:href="#DejaVuSans-13"/>
       <use xlink:href="#DejaVuSans-11" transform="translate(63.625 0)"/>
       <use xlink:href="#DejaVuSans-18" transform="translate(95.40625 0)"/>
      </g>
     </g>
    </g>
    <g id="ytick_17">
     <g id="line2d_30">
      <g>
       <use xlink:href="#m1f2a878521" x="614.030448" y="139.090862" style="stroke: #000000; stroke-width: 0.8"/>
      </g>
     </g>
     <g id="text_38">
      <!-- 1.0 -->
      <g transform="translate(591.127323 142.88969) scale(0.1 -0.1)">
       <use xlink:href="#DejaVuSans-14"/>
       <use xlink:href="#DejaVuSans-11" transform="translate(63.625 0)"/>
       <use xlink:href="#DejaVuSans-13" transform="translate(95.40625 0)"/>
      </g>
     </g>
    </g>
    <g id="ytick_18">
     <g id="line2d_31">
      <g>
       <use xlink:href="#m1f2a878521" x="614.030448" y="113.605832" style="stroke: #000000; stroke-width: 0.8"/>
      </g>
     </g>
     <g id="text_39">
      <!-- 1.5 -->
      <g transform="translate(591.127323 117.40466) scale(0.1 -0.1)">
       <use xlink:href="#DejaVuSans-14"/>
       <use xlink:href="#DejaVuSans-11" transform="translate(63.625 0)"/>
       <use xlink:href="#DejaVuSans-18" transform="translate(95.40625 0)"/>
      </g>
     </g>
    </g>
    <g id="ytick_19">
     <g id="line2d_32">
      <g>
       <use xlink:href="#m1f2a878521" x="614.030448" y="88.120801" style="stroke: #000000; stroke-width: 0.8"/>
      </g>
     </g>
     <g id="text_40">
      <!-- 2.0 -->
      <g transform="translate(591.127323 91.919629) scale(0.1 -0.1)">
       <use xlink:href="#DejaVuSans-15"/>
       <use xlink:href="#DejaVuSans-11" transform="translate(63.625 0)"/>
       <use xlink:href="#DejaVuSans-13" transform="translate(95.40625 0)"/>
      </g>
     </g>
    </g>
    <g id="ytick_20">
     <g id="line2d_33">
      <g>
       <use xlink:href="#m1f2a878521" x="614.030448" y="62.635771" style="stroke: #000000; stroke-width: 0.8"/>
      </g>
     </g>
     <g id="text_41">
      <!-- 2.5 -->
      <g transform="translate(591.127323 66.434599) scale(0.1 -0.1)">
       <use xlink:href="#DejaVuSans-15"/>
       <use xlink:href="#DejaVuSans-11" transform="translate(63.625 0)"/>
       <use xlink:href="#DejaVuSans-18" transform="translate(95.40625 0)"/>
      </g>
     </g>
    </g>
    <g id="ytick_21">
     <g id="line2d_34">
      <g>
       <use xlink:href="#m1f2a878521" x="614.030448" y="37.15074" style="stroke: #000000; stroke-width: 0.8"/>
      </g>
     </g>
     <g id="text_42">
      <!-- 3.0 -->
      <g transform="translate(591.127323 40.949569) scale(0.1 -0.1)">
       <use xlink:href="#DejaVuSans-16"/>
       <use xlink:href="#DejaVuSans-11" transform="translate(63.625 0)"/>
       <use xlink:href="#DejaVuSans-13" transform="translate(95.40625 0)"/>
      </g>
     </g>
    </g>
    <g id="text_43">
     <!-- Mean Delta (nats/token) -->
     <g transform="translate(576.345292 205.566412) rotate(-90) scale(0.1 -0.1)">
      <defs>
       <path id="DejaVuSans-12" d="M 1625 4666 
L 2156 4666 
L 531 -594 
L 0 -594 
L 1625 4666 
z
" transform="scale(0.015625)"/>
       <path id="DejaVuSans-4e" d="M 581 4863 
L 1159 4863 
L 1159 1991 
L 2875 3500 
L 3609 3500 
L 1753 1863 
L 3688 0 
L 2938 0 
L 1159 1709 
L 1159 0 
L 581 0 
L 581 4863 
z
" transform="scale(0.015625)"/>
      </defs>
      <use xlink:href="#DejaVuSans-30"/>
      <use xlink:href="#DejaVuSans-48" transform="translate(86.28125 0)"/>
      <use xlink:href="#DejaVuSans-44" transform="translate(147.8125 0)"/>
      <use xlink:href="#DejaVuSans-51" transform="translate(209.09375 0)"/>
      <use xlink:href="#DejaVuSans-3" transform="translate(272.46875 0)"/>
      <use xlink:href="#DejaVuSans-27" transform="translate(304.25 0)"/>
      <use xlink:href="#DejaVuSans-48" transform="translate(381.25 0)"/>
      <use xlink:href="#DejaVuSans-4f" transform="translate(442.78125 0)"/>
      <use xlink:href="#DejaVuSans-57" transform="translate(470.5625 0)"/>
      <use xlink:href="#DejaVuSans-44" transform="translate(509.765625 0)"/>
      <use xlink:href="#DejaVuSans-3" transform="translate(571.046875 0)"/>
      <use xlink:href="#DejaVuSans-b" transform="translate(602.828125 0)"/>
      <use xlink:href="#DejaVuSans-51" transform="translate(641.84375 0)"/>
      <use xlink:href="#DejaVuSans-44" transform="translate(705.21875 0)"/>
      <use xlink:href="#DejaVuSans-57" transform="translate(766.5 0)"/>
      <use xlink:href="#DejaVuSans-56" transform="translate(805.703125 0)"/>
      <use xlink:href="#DejaVuSans-12" transform="translate(857.796875 0)"/>
      <use xlink:href="#DejaVuSans-57" transform="translate(891.484375 0)"/>
      <use xlink:href="#DejaVuSans-52" transform="translate(930.6875 0)"/>
      <use xlink:href="#DejaVuSans-4e" transform="translate(991.875 0)"/>
      <use xlink:href="#DejaVuSans-48" transform="translate(1046.21875 0)"/>
      <use xlink:href="#DejaVuSans-51" transform="translate(1107.75 0)"/>
      <use xlink:href="#DejaVuSans-c" transform="translate(1171.125 0)"/>
     </g>
    </g>
   </g>
   <g id="line2d_35">
    <path d="M 625.256326 107.951407 
L 700.095511 216.812263 
L 774.934697 216.539173 
L 849.773882 218.940849 
" clip-path="url(#p968c342731)" style="fill: none; stroke: #277da8; stroke-width: 1.5; stroke-linecap: square"/>
    <defs>
     <path id="m5bd608833d" d="M 0 3 
C 0.795609 3 1.55874 2.683901 2.12132 2.12132 
C 2.683901 1.55874 3 0.795609 3 0 
C 3 -0.795609 2.683901 -1.55874 2.12132 -2.12132 
C 1.55874 -2.683901 0.795609 -3 0 -3 
C -0.795609 -3 -1.55874 -2.683901 -2.12132 -2.12132 
C -2.683901 -1.55874 -3 -0.795609 -3 0 
C -3 0.795609 -2.683901 1.55874 -2.12132 2.12132 
C -1.55874 2.683901 -0.795609 3 0 3 
z
" style="stroke: #277da8"/>
    </defs>
    <g clip-path="url(#p968c342731)">
     <use xlink:href="#m5bd608833d" x="625.256326" y="107.951407" style="fill: #277da8; stroke: #277da8"/>
     <use xlink:href="#m5bd608833d" x="700.095511" y="216.812263" style="fill: #277da8; stroke: #277da8"/>
     <use xlink:href="#m5bd608833d" x="774.934697" y="216.539173" style="fill: #277da8; stroke: #277da8"/>
     <use xlink:href="#m5bd608833d" x="849.773882" y="218.940849" style="fill: #277da8; stroke: #277da8"/>
    </g>
   </g>
   <g id="line2d_36">
    <path d="M 625.256326 84.583898 
L 700.095511 219.904488 
L 774.934697 228.680894 
L 849.773882 227.074412 
" clip-path="url(#p968c342731)" style="fill: none; stroke: #f8961e; stroke-width: 1.5; stroke-linecap: square"/>
    <defs>
     <path id="m5eeeaba730" d="M 0 3 
C 0.795609 3 1.55874 2.683901 2.12132 2.12132 
C 2.683901 1.55874 3 0.795609 3 0 
C 3 -0.795609 2.683901 -1.55874 2.12132 -2.12132 
C 1.55874 -2.683901 0.795609 -3 0 -3 
C -0.795609 -3 -1.55874 -2.683901 -2.12132 -2.12132 
C -2.683901 -1.55874 -3 -0.795609 -3 0 
C -3 0.795609 -2.683901 1.55874 -2.12132 2.12132 
C -1.55874 2.683901 -0.795609 3 0 3 
z
" style="stroke: #f8961e"/>
    </defs>
    <g clip-path="url(#p968c342731)">
     <use xlink:href="#m5eeeaba730" x="625.256326" y="84.583898" style="fill: #f8961e; stroke: #f8961e"/>
     <use xlink:href="#m5eeeaba730" x="700.095511" y="219.904488" style="fill: #f8961e; stroke: #f8961e"/>
     <use xlink:href="#m5eeeaba730" x="774.934697" y="228.680894" style="fill: #f8961e; stroke: #f8961e"/>
     <use xlink:href="#m5eeeaba730" x="849.773882" y="227.074412" style="fill: #f8961e; stroke: #f8961e"/>
    </g>
   </g>
   <g id="line2d_37">
    <path d="M 625.256326 46.023382 
L 700.095511 244.095379 
L 774.934697 241.188967 
L 849.773882 228.935964 
" clip-path="url(#p968c342731)" style="fill: none; stroke: #a84469; stroke-width: 1.5; stroke-linecap: square"/>
    <defs>
     <path id="m02c5eee5bf" d="M 0 3 
C 0.795609 3 1.55874 2.683901 2.12132 2.12132 
C 2.683901 1.55874 3 0.795609 3 0 
C 3 -0.795609 2.683901 -1.55874 2.12132 -2.12132 
C 1.55874 -2.683901 0.795609 -3 0 -3 
C -0.795609 -3 -1.55874 -2.683901 -2.12132 -2.12132 
C -2.683901 -1.55874 -3 -0.795609 -3 0 
C -3 0.795609 -2.683901 1.55874 -2.12132 2.12132 
C -1.55874 2.683901 -0.795609 3 0 3 
z
" style="stroke: #a84469"/>
    </defs>
    <g clip-path="url(#p968c342731)">
     <use xlink:href="#m02c5eee5bf" x="625.256326" y="46.023382" style="fill: #a84469; stroke: #a84469"/>
     <use xlink:href="#m02c5eee5bf" x="700.095511" y="244.095379" style="fill: #a84469; stroke: #a84469"/>
     <use xlink:href="#m02c5eee5bf" x="774.934697" y="241.188967" style="fill: #a84469; stroke: #a84469"/>
     <use xlink:href="#m02c5eee5bf" x="849.773882" y="228.935964" style="fill: #a84469; stroke: #a84469"/>
    </g>
   </g>
   <g id="line2d_38">
    <path d="M 614.030448 190.060923 
L 860.99976 190.060923 
" clip-path="url(#p968c342731)" style="fill: none; stroke-dasharray: 3.7,1.6; stroke-dashoffset: 0; stroke: #808080"/>
   </g>
   <g id="patch_36">
    <path d="M 614.030448 253.998979 
L 614.030448 36.119782 
" style="fill: none; stroke: #000000; stroke-width: 0.8; stroke-linejoin: miter; stroke-linecap: square"/>
   </g>
   <g id="patch_37">
    <path d="M 614.030448 253.998979 
L 860.99976 253.998979 
" style="fill: none; stroke: #000000; stroke-width: 0.8; stroke-linejoin: miter; stroke-linecap: square"/>
   </g>
   <g id="text_44">
    <!-- Identity-matched score shift -->
    <g transform="translate(653.093229 30.119782) scale(0.12 -0.12)">
     <defs>
      <path id="DejaVuSans-50" d="M 3328 2828 
Q 3544 3216 3844 3400 
Q 4144 3584 4550 3584 
Q 5097 3584 5394 3201 
Q 5691 2819 5691 2113 
L 5691 0 
L 5113 0 
L 5113 2094 
Q 5113 2597 4934 2840 
Q 4756 3084 4391 3084 
Q 3944 3084 3684 2787 
Q 3425 2491 3425 1978 
L 3425 0 
L 2847 0 
L 2847 2094 
Q 2847 2600 2669 2842 
Q 2491 3084 2119 3084 
Q 1678 3084 1418 2786 
Q 1159 2488 1159 1978 
L 1159 0 
L 581 0 
L 581 3500 
L 1159 3500 
L 1159 2956 
Q 1356 3278 1631 3431 
Q 1906 3584 2284 3584 
Q 2666 3584 2933 3390 
Q 3200 3197 3328 2828 
z
" transform="scale(0.015625)"/>
      <path id="DejaVuSans-4b" d="M 3513 2113 
L 3513 0 
L 2938 0 
L 2938 2094 
Q 2938 2591 2744 2837 
Q 2550 3084 2163 3084 
Q 1697 3084 1428 2787 
Q 1159 2491 1159 1978 
L 1159 0 
L 581 0 
L 581 4863 
L 1159 4863 
L 1159 2956 
Q 1366 3272 1645 3428 
Q 1925 3584 2291 3584 
Q 2894 3584 3203 3211 
Q 3513 2838 3513 2113 
z
" transform="scale(0.015625)"/>
      <path id="DejaVuSans-49" d="M 2375 4863 
L 2375 4384 
L 1825 4384 
Q 1516 4384 1395 4259 
Q 1275 4134 1275 3809 
L 1275 3500 
L 2222 3500 
L 2222 3053 
L 1275 3053 
L 1275 0 
L 697 0 
L 697 3053 
L 147 3053 
L 147 3500 
L 697 3500 
L 697 3744 
Q 697 4328 969 4595 
Q 1241 4863 1831 4863 
L 2375 4863 
z
" transform="scale(0.015625)"/>
     </defs>
     <use xlink:href="#DejaVuSans-2c"/>
     <use xlink:href="#DejaVuSans-47" transform="translate(29.5 0)"/>
     <use xlink:href="#DejaVuSans-48" transform="translate(92.984375 0)"/>
     <use xlink:href="#DejaVuSans-51" transform="translate(154.515625 0)"/>
     <use xlink:href="#DejaVuSans-57" transform="translate(217.890625 0)"/>
     <use xlink:href="#DejaVuSans-4c" transform="translate(257.09375 0)"/>
     <use xlink:href="#DejaVuSans-57" transform="translate(284.875 0)"/>
     <use xlink:href="#DejaVuSans-5c" transform="translate(324.078125 0)"/>
     <use xlink:href="#DejaVuSans-10" transform="translate(381.515625 0)"/>
     <use xlink:href="#DejaVuSans-50" transform="translate(417.59375 0)"/>
     <use xlink:href="#DejaVuSans-44" transform="translate(515 0)"/>
     <use xlink:href="#DejaVuSans-57" transform="translate(576.28125 0)"/>
     <use xlink:href="#DejaVuSans-46" transform="translate(615.484375 0)"/>
     <use xlink:href="#DejaVuSans-4b" transform="translate(670.46875 0)"/>
     <use xlink:href="#DejaVuSans-48" transform="translate(733.84375 0)"/>
     <use xlink:href="#DejaVuSans-47" transform="translate(795.375 0)"/>
     <use xlink:href="#DejaVuSans-3" transform="translate(858.859375 0)"/>
     <use xlink:href="#DejaVuSans-56" transform="translate(890.640625 0)"/>
     <use xlink:href="#DejaVuSans-46" transform="translate(942.734375 0)"/>
     <use xlink:href="#DejaVuSans-52" transform="translate(997.71875 0)"/>
     <use xlink:href="#DejaVuSans-55" transform="translate(1058.90625 0)"/>
     <use xlink:href="#DejaVuSans-48" transform="translate(1097.8125 0)"/>
     <use xlink:href="#DejaVuSans-3" transform="translate(1159.34375 0)"/>
     <use xlink:href="#DejaVuSans-56" transform="translate(1191.125 0)"/>
     <use xlink:href="#DejaVuSans-4b" transform="translate(1243.21875 0)"/>
     <use xlink:href="#DejaVuSans-4c" transform="translate(1306.59375 0)"/>
     <use xlink:href="#DejaVuSans-49" transform="translate(1334.375 0)"/>
     <use xlink:href="#DejaVuSans-57" transform="translate(1367.828125 0)"/>
    </g>
   </g>
  </g>
  <g id="text_45">
   <!-- v3.4.3: six cases, three conditions, four fixed rotations per set -->
   <g transform="translate(245.693438 12.118365) scale(0.12 -0.12)">
    <defs>
     <path id="DejaVuSans-1d" d="M 750 794 
L 1409 794 
L 1409 0 
L 750 0 
L 750 794 
z
M 750 3309 
L 1409 3309 
L 1409 2516 
L 750 2516 
L 750 3309 
z
" transform="scale(0.015625)"/>
     <path id="DejaVuSans-5b" d="M 3513 3500 
L 2247 1797 
L 3578 0 
L 2900 0 
L 1881 1375 
L 863 0 
L 184 0 
L 1544 1831 
L 300 3500 
L 978 3500 
L 1906 2253 
L 2834 3500 
L 3513 3500 
z
" transform="scale(0.015625)"/>
     <path id="DejaVuSans-f" d="M 750 794 
L 1409 794 
L 1409 256 
L 897 -744 
L 494 -744 
L 750 256 
L 750 794 
z
" transform="scale(0.015625)"/>
     <path id="DejaVuSans-13af" d="M 3431 3500 
L 3431 0 
L 2853 0 
L 2853 3053 
L 1275 3053 
L 1275 0 
L 697 0 
L 697 3053 
L 147 3053 
L 147 3500 
L 697 3500 
L 697 3744 
Q 697 4316 967 4589 
Q 1238 4863 1797 4863 
L 2375 4863 
L 2375 4384 
L 1825 4384 
Q 1516 4384 1395 4259 
Q 1275 4134 1275 3809 
L 1275 3500 
L 3431 3500 
z
M 2853 4856 
L 3431 4856 
L 3431 4128 
L 2853 4128 
L 2853 4856 
z
" transform="scale(0.015625)"/>
    </defs>
    <use xlink:href="#DejaVuSans-59"/>
    <use xlink:href="#DejaVuSans-16" transform="translate(59.1875 0)"/>
    <use xlink:href="#DejaVuSans-11" transform="translate(122.8125 0)"/>
    <use xlink:href="#DejaVuSans-17" transform="translate(154.59375 0)"/>
    <use xlink:href="#DejaVuSans-11" transform="translate(218.21875 0)"/>
    <use xlink:href="#DejaVuSans-16" transform="translate(250 0)"/>
    <use xlink:href="#DejaVuSans-1d" transform="translate(313.625 0)"/>
    <use xlink:href="#DejaVuSans-3" transform="translate(347.3125 0)"/>
    <use xlink:href="#DejaVuSans-56" transform="translate(379.09375 0)"/>
    <use xlink:href="#DejaVuSans-4c" transform="translate(431.1875 0)"/>
    <use xlink:href="#DejaVuSans-5b" transform="translate(458.96875 0)"/>
    <use xlink:href="#DejaVuSans-3" transform="translate(518.15625 0)"/>
    <use xlink:href="#DejaVuSans-46" transform="translate(549.9375 0)"/>
    <use xlink:href="#DejaVuSans-44" transform="translate(604.921875 0)"/>
    <use xlink:href="#DejaVuSans-56" transform="translate(666.203125 0)"/>
    <use xlink:href="#DejaVuSans-48" transform="translate(718.296875 0)"/>
    <use xlink:href="#DejaVuSans-56" transform="translate(779.828125 0)"/>
    <use xlink:href="#DejaVuSans-f" transform="translate(831.921875 0)"/>
    <use xlink:href="#DejaVuSans-3" transform="translate(863.703125 0)"/>
    <use xlink:href="#DejaVuSans-57" transform="translate(895.484375 0)"/>
    <use xlink:href="#DejaVuSans-4b" transform="translate(934.6875 0)"/>
    <use xlink:href="#DejaVuSans-55" transform="translate(998.0625 0)"/>
    <use xlink:href="#DejaVuSans-48" transform="translate(1036.96875 0)"/>
    <use xlink:href="#DejaVuSans-48" transform="translate(1098.5 0)"/>
    <use xlink:href="#DejaVuSans-3" transform="translate(1160.03125 0)"/>
    <use xlink:href="#DejaVuSans-46" transform="translate(1191.8125 0)"/>
    <use xlink:href="#DejaVuSans-52" transform="translate(1246.796875 0)"/>
    <use xlink:href="#DejaVuSans-51" transform="translate(1307.984375 0)"/>
    <use xlink:href="#DejaVuSans-47" transform="translate(1371.359375 0)"/>
    <use xlink:href="#DejaVuSans-4c" transform="translate(1434.84375 0)"/>
    <use xlink:href="#DejaVuSans-57" transform="translate(1462.625 0)"/>
    <use xlink:href="#DejaVuSans-4c" transform="translate(1501.828125 0)"/>
    <use xlink:href="#DejaVuSans-52" transform="translate(1529.609375 0)"/>
    <use xlink:href="#DejaVuSans-51" transform="translate(1590.796875 0)"/>
    <use xlink:href="#DejaVuSans-56" transform="translate(1654.171875 0)"/>
    <use xlink:href="#DejaVuSans-f" transform="translate(1706.265625 0)"/>
    <use xlink:href="#DejaVuSans-3" transform="translate(1738.046875 0)"/>
    <use xlink:href="#DejaVuSans-49" transform="translate(1769.828125 0)"/>
    <use xlink:href="#DejaVuSans-52" transform="translate(1805.03125 0)"/>
    <use xlink:href="#DejaVuSans-58" transform="translate(1866.21875 0)"/>
    <use xlink:href="#DejaVuSans-55" transform="translate(1929.59375 0)"/>
    <use xlink:href="#DejaVuSans-3" transform="translate(1970.703125 0)"/>
    <use xlink:href="#DejaVuSans-13af" transform="translate(2002.484375 0)"/>
    <use xlink:href="#DejaVuSans-5b" transform="translate(2065.46875 0)"/>
    <use xlink:href="#DejaVuSans-48" transform="translate(2121.578125 0)"/>
    <use xlink:href="#DejaVuSans-47" transform="translate(2183.109375 0)"/>
    <use xlink:href="#DejaVuSans-3" transform="translate(2246.59375 0)"/>
    <use xlink:href="#DejaVuSans-55" transform="translate(2278.375 0)"/>
    <use xlink:href="#DejaVuSans-52" transform="translate(2317.28125 0)"/>
    <use xlink:href="#DejaVuSans-57" transform="translate(2378.46875 0)"/>
    <use xlink:href="#DejaVuSans-44" transform="translate(2417.671875 0)"/>
    <use xlink:href="#DejaVuSans-57" transform="translate(2478.953125 0)"/>
    <use xlink:href="#DejaVuSans-4c" transform="translate(2518.15625 0)"/>
    <use xlink:href="#DejaVuSans-52" transform="translate(2545.9375 0)"/>
    <use xlink:href="#DejaVuSans-51" transform="translate(2607.125 0)"/>
    <use xlink:href="#DejaVuSans-56" transform="translate(2670.5 0)"/>
    <use xlink:href="#DejaVuSans-3" transform="translate(2722.59375 0)"/>
    <use xlink:href="#DejaVuSans-53" transform="translate(2754.375 0)"/>
    <use xlink:href="#DejaVuSans-48" transform="translate(2817.859375 0)"/>
    <use xlink:href="#DejaVuSans-55" transform="translate(2879.390625 0)"/>
    <use xlink:href="#DejaVuSans-3" transform="translate(2920.5 0)"/>
    <use xlink:href="#DejaVuSans-56" transform="translate(2952.28125 0)"/>
    <use xlink:href="#DejaVuSans-48" transform="translate(3004.375 0)"/>
    <use xlink:href="#DejaVuSans-57" transform="translate(3065.90625 0)"/>
   </g>
  </g>
 </g>
 <defs>
  <clipPath id="pa0702aac7e">
   <rect x="39.904146" y="36.119782" width="246.969312" height="217.879196"/>
  </clipPath>
  <clipPath id="pec65208e26">
   <rect x="315.777063" y="36.119782" width="246.969312" height="217.879196"/>
  </clipPath>
  <clipPath id="p968c342731">
   <rect x="614.030448" y="36.119782" width="246.969312" height="217.879196"/>
  </clipPath>
 </defs>
</svg>
